<?xml version="1.0" standalone="no"?>
<!DOCTYPE svg PUBLIC "-//W3C//DTD SVG 20010904//EN"
 "http://www.w3.org/TR/2001/REC-SVG-20010904/DTD/svg10.dtd">
<svg version="1.0" xmlns="http://www.w3.org/2000/svg"
 width="50.000000pt" height="50.000000pt" viewBox="0 0 50.000000 50.000000"
 preserveAspectRatio="xMidYMid meet">

<g transform="translate(0.000000,50.000000) scale(0.100000,-0.100000)"
fill="#000000" stroke="none">
<path d="M102 397 c-99 -99 -102 -104 -102 -147 0 -43 3 -48 102 -147 100
-100 104 -103 148 -103 44 0 48 3 148 103 99 99 102 104 102 147 0 44 -3 48
-103 148 -99 99 -104 102 -147 102 -44 0 -48 -3 -148 -103z m208 -42 c79 -41
79 -169 0 -210 -84 -43 -180 13 -180 105 0 92 96 148 180 105z"/>
<path d="M191 346 c-69 -38 -67 -162 4 -194 104 -48 201 49 153 153 -22 50
-104 71 -157 41z m98 -21 c16 -8 34 -28 41 -45 28 -67 -44 -138 -111 -110 -44
19 -66 68 -49 110 12 29 50 59 78 60 7 0 26 -7 41 -15z"/>
<path d="M212 288 c-15 -15 -15 -61 0 -76 15 -15 61 -15 76 0 15 15 15 61 0
76 -7 7 -24 12 -38 12 -14 0 -31 -5 -38 -12z"/>
</g>
</svg>
